/* XPM */
static char * backlight_off_xpm[] = {
"58 58 12 1",
" 	c None",
".	c #020202",
"+	c #0A0A0A",
"@	c #484C46",
"#	c #DEDEDE",
"$	c #7C827C",
"%	c #8E968A",
"&	c #000000",
"*	c #FFFFFF",
"=	c #767C6F",
"-	c #9B1414",
";	c #3E463E",
"  ......................................................  ",
" .++++++++++++++++++++++++++++++++++++++++++++++++++++++. ",
".++@@@@@@@@@@@@@@@@@@@@@@@@@@@@@@@@@@@@@@@@@@@@@@@@@@@@@.#",
".+@@$$$$$$$$$$$$$$$$$$$$$$$$$$$$$$$$$$$$$$$$$$$$$$$$$$$$.#",
".+@$$%%%%%%%%%%%%%%%%%%%%%%%%%%%%%%%%%%%%%%%%%%%%%%%%%%%.#",
".+@$%%%%%%%%%%%%%%%%%%%%%%%%%%%%%%%%%%%%%%%%&&&&&&&&&&&%.#",
".+@$%%%%%%%%%%%%%%%%%%%%%%%%%%%%%%%%%%%%%%%%&&***&***&&%.#",
".+@$%%%%%%%%%%%%%%%%%%%%%%%%%%%%%%%%%%%%%%%%&*&&&*&&&*&%.#",
".+@$%%%%%%%%%%%%%%%%%%%%%%%%%%%%%%%%%%%%%%%%&*&&&*&&&*&%.#",
".+@$%%%%%%%%%%%%%%%%%%%%%%%%%%%%%%%%%%%%%%%%&&***&***&&%.#",
".+@$%%%%%%%%%%%%%%%%%%%%%%%%%%%%%%%%%%%%%%%%&&&&&&&&&&&%.#",
".+@$%%%%%%%%%%%%%%%%%%%%%%%%%%%%%%%%%%%%%%%%%%%%%%%%%%%%.#",
".+@$%%%%%%%%%%%%%%%%%%%%%%%%%%%%%%%%%%%%%%%%&&&&&&&&&&&%.#",
".+@$%%%%%%%%%%%%%%%%%%%%%%%%%%%%%%%%%%%%%%%%&**&&**&&&&%.#",
".+@$%%%%%%%%%%%%%%%%%%%%%%%%%%%%%%%%%%%%%%%%&&&&&&&&&&&%.#",
".+@$%%%%%%%%%%%%%%%%%%%%%%%%%%%%%%%%%%%%%%%%&&&**&&**&&%.#",
".+@$%%%%%%%%%%%%%%%%%%%%%%%%%%%%%%%%%%%%%%%%&&&&&&&&&&&%.#",
".+@$%%%%%%%%%%%%%%%%%%%%%%%%%%%%%%%%%%%%%%%%&&&&&&&&&&&%.#",
".+@$%%===%%%===%%%%%===%%%===%%%%%%%%%%%%%%%%%%%%%%%%%%%.#",
".+@$%=%%%=%=%%%=%%%=%%%=%=%%%=%%%%%%%%%%%%%%%%%%%%%%%%%%.#",
".+@$%=%%%=%=%%%=%%%=%%%=%=%%%=%%%%%%--%%%%%%%==%%%==%%%%.#",
".+@$%=%%%=%=%%%=%&%=%%%=%=%%%=%%%%%%--%%%%%%=%%=%=%%=%%%.#",
".+@$%%===%%%===%%%%%===%%%===%%%%%%%%%%%%%%%=%%=%=%%=%%%.#",
".+@$%=%%%=%=%%%=%&%=%%%=%=%%%=%%%%%%%%%%%%%%%==%%%==%%%%.#",
".+@$%=%%%=%=%%%=%%%=%%%=%=%%%=%%%%--%%--%%%%=%%=%=%%=%%%.#",
".+@$%=%%%=%=%%%=%%%=%%%=%=%%%=%%%%--%%--%%%%=%%=%=%%=%%%.#",
".+@$%%===%%%===%%%%%===%%%===%%%%%%%%%%%%%%%%==%%%==%%%%.#",
".+@$%%%%%%%%%%%%%%%%%%%%%%%%%%%%%%%%%%%%%%%%%%%%%%%%%%%%.#",
".+@$%;;;;;;;;;;;;;;;;;;;;;;;;;;;;;;;;;;;;;;;;;;;;;;;;;%%.#",
".+@$%;;;;;;;;;;;;;;;;;;;;;;;;;;;;;;;;;;;;;;;;;;;;;;;;;=%.#",
".+@$%%=================================================%.#",
".+@$%%%%%%%%%%%%%%%%%%%%%%%%%%%%%%%%%%%%%%%%%%%%%%%%%%%%.#",
".+@$&&&&&&&&&&&&&&&&&&&&&&&&&&&&&&&&&&&&&&&&&&&&&&&&&&&%.#",
".+@$&%%%%%%%%%%%%&%%%%%%%%%%%&%%%%%%%%%%%&%%%%%%%%%%%%&%.#",
".+@$&%%&%%&%%&%%%&%%%%&%%&%%%&%%%&%%&%%%%&%%%&%%&%%&%%&%.#",
".+@$&%%&%&&%&&%%%&%%%&&%&&%%%&%%%&&%&&%%%&%%%&&%&&%&%%&%.#",
".+@$&%%&&&&&&&%%%&%%&&&&&&%%%&%%%&&&&&&%%&%%%&&&&&&&%%&%.#",
".+@$&%%&%&&%&&%%%&%%%&&%&&%%%&%%%&&%&&%%%&%%%&&%&&%&%%&%.#",
".+@$&%%&%%&%%&%%%&%%%%&%%&%%%&%%%&%%&%%%%&%%%&%%&%%&%%&%.#",
".+@$&%%%%%%%%%%%%&%%%%%%%%%%%&%%%%%%%%%%%&%%%%%%%%%%%%&%.#",
".+@$&&&&&&&&&&&&&=&&&&&&&&&&&=&&&&&&&&&&&=&&&&&&&&&&&&&%.#",
".+@$&%%%%%%%%%%%%%%%%%%%%%%%%%%%%%%%%%%%%%%%%%%%%%%%%%&%.#",
".+@$&%%%%%%%%%%%%%%%%%%%%%%%%%%%%%%%%%%%%%%%%%%%%%%%%%&%.#",
".+@$&%%%%%%%%%%%%%%%%%%%%%%%%%%%%%%%%%%%%%%%%%%%%%%%%%&%.#",
".+@$&%%%%%%%%%%%%%%%%%%%%%%%%%%%%%%%%%%%%%%%%%%%%%%%%%&%.#",
".+@$&&&&&&&&&=&&&&&&&&&&&&&&&&&&&&=&&&&&&&&&=&&&&&&&&&&%.#",
".+@$&%%%%%%%%&%%%%%%%%%%%%%%%%%%%%&%%%%%%%%%&%%%%%%%%%&%.#",
".+@$&%%%%%%%%&%%%%%%%%%%%%%%%%%%%%&%%%%%%%%%&%%%%%%%%%&%.#",
".+@$&%%%&&%%%&%%%%%%%%&&%%%%%%%%%%&%%&&%&&%%&%%&&&&&%%&%.#",
".+@$&%%&&&&%%&%%%%%%%%&&&&%%%%%%%%&%%&&%&&%%&%%&&&&&%%&%.#",
".+@$&%&&&&&&%&%%%%%%%%&&&&&&%%%%%%&%%&&%&&%%&%%&&&&&%%&%.#",
".+@$&%%%%%%%%&%%%%%%%%&&&&%%%%%%%%&%%&&%&&%%&%%&&&&&%%&%.#",
".+@$&%&&&&&&%&%%%%%%%%&&%%%%%%%%%%&%%%%%%%%%&%%%%%%%%%&%.#",
".+@$&%%%%%%%%&%%%%%%%%%%%%%%%%%%%%&%%%%%%%%%&%%%%%%%%%&%.#",
".+@$&&&&&&&&&&&&&&&&&&&&&&&&&&&&&&&&&&&&&&&&&&&&&&&&&&&%.#",
".+@$%%%%%%%%%%%%%%%%%%%%%%%%%%%%%%%%%%%%%%%%%%%%%%%%%%%..#",
" .......................................................# ",
"  ######################################################  "};
