/* XPM */
static char * backlight_on_xpm[] = {
"58 58 9 1",
" 	c None",
".	c #020202",
"+	c #6EC63B s Back0",
"@	c #DEDEDE",
"#	c #000000",
"$	c #FFFFFF",
"%	c #6CB237 s Back1",
"&	c #9B1414",
"*	c #3E463E",
"  ......................................................  ",
" .++++++++++++++++++++++++++++++++++++++++++++++++++++++. ",
".++++++++++++++++++++++++++++++++++++++++++++++++++++++++@",
".++++++++++++++++++++++++++++++++++++++++++++++++++++++++@",
".++++++++++++++++++++++++++++++++++++++++++++++++++++++++@",
".+++++++++++++++++++++++++++++++++++++++++++###########++@",
".+++++++++++++++++++++++++++++++++++++++++++##$$$#$$$##++@",
".+++++++++++++++++++++++++++++++++++++++++++#$###$###$#++@",
".+++++++++++++++++++++++++++++++++++++++++++#$###$###$#++@",
".+++++++++++++++++++++++++++++++++++++++++++##$$$#$$$##++@",
".+++++++++++++++++++++++++++++++++++++++++++###########++@",
".++++++++++++++++++++++++++++++++++++++++++++++++++++++++@",
".+++++++++++++++++++++++++++++++++++++++++++###########++@",
".+++++++++++++++++++++++++++++++++++++++++++#$$##$$####++@",
".+++++++++++++++++++++++++++++++++++++++++++###########++@",
".+++++++++++++++++++++++++++++++++++++++++++###$$##$$##++@",
".+++++++++++++++++++++++++++++++++++++++++++###########++@",
".+++++++++++++++++++++++++++++++++++++++++++###########++@",
".+++++%%%+++%%%+++++%%%+++%%%++++++++++++++++++++++++++++@",
".++++%+++%+%+++%+++%+++%+%+++%+++++++++++++++++++++++++++@",
".++++%+++%+%+++%+++%+++%+%+++%++++++&&+++++++%%+++%%+++++@",
".++++%+++%+%+++%+#+%+++%+%+++%++++++&&++++++%++%+%++%++++@",
".+++++%%%+++%%%+++++%%%+++%%%+++++++++++++++%++%+%++%++++@",
".++++%+++%+%+++%+#+%+++%+%+++%+++++++++++++++%%+++%%+++++@",
".++++%+++%+%+++%+++%+++%+%+++%++++&&++&&++++%++%+%++%++++@",
".++++%+++%+%+++%+++%+++%+%+++%++++&&++&&++++%++%+%++%++++@",
".+++++%%%+++%%%+++++%%%+++%%%++++++++++++++++%%+++%%+++++@",
".++++++++++++++++++++++++++++++++++++++++++++++++++++++++@",
".++++*************************************************+++@",
".++++*************************************************%++@",
".+++++%%%%%%%%%%%%%%%%%%%%%%%%%%%%%%%%%%%%%%%%%%%%%%%%%++@",
".++++++++++++++++++++++++++++++++++++++++++++++++++++++++@",
".+++###################################################++@",
".+++#++++++++++++#+++++++++++#+++++++++++#++++++++++++#++@",
".+++#++#++#++#+++#++++#++#+++#+++#++#++++#+++#++#++#++#++@",
".+++#++#+##+##+++#+++##+##+++#+++##+##+++#+++##+##+#++#++@",
".+++#++#######+++#++######+++#+++######++#+++#######++#++@",
".+++#++#+##+##+++#+++##+##+++#+++##+##+++#+++##+##+#++#++@",
".+++#++#++#++#+++#++++#++#+++#+++#++#++++#+++#++#++#++#++@",
".+++#++++++++++++#+++++++++++#+++++++++++#++++++++++++#++@",
".+++#############%###########%###########%#############++@",
".+++#+++++++++++++++++++++++++++++++++++++++++++++++++#++@",
".+++#+++++++++++++++++++++++++++++++++++++++++++++++++#++@",
".+++#+++++++++++++++++++++++++++++++++++++++++++++++++#++@",
".+++#+++++++++++++++++++++++++++++++++++++++++++++++++#++@",
".+++#########%####################%#########%##########++@",
".+++#++++++++#++++++++++++++++++++#+++++++++#+++++++++#++@",
".+++#++++++++#++++++++++++++++++++#+++++++++#+++++++++#++@",
".+++#+++##+++#++++++++##++++++++++#++##+##++#++#####++#++@",
".+++#++####++#++++++++####++++++++#++##+##++#++#####++#++@",
".+++#+######+#++++++++######++++++#++##+##++#++#####++#++@",
".+++#++++++++#++++++++####++++++++#++##+##++#++#####++#++@",
".+++#+######+#++++++++##++++++++++#+++++++++#+++++++++#++@",
".+++#++++++++#++++++++++++++++++++#+++++++++#+++++++++#++@",
".+++###################################################++@",
".++++++++++++++++++++++++++++++++++++++++++++++++++++++++@",
" .++++++++++++++++++++++++++++++++++++++++++++++++++++++@ ",
"  @@@@@@@@@@@@@@@@@@@@@@@@@@@@@@@@@@@@@@@@@@@@@@@@@@@@@@  "};
