/* XPM */
static char * parts_xpm[] = {
"166 105 60 1",
" 	c None",
".	c #8E968A",
"+	c #020202",
"@	c #767C6F",
"#	c #000000",
"$	c #6EC63B s Back0",
"%	c #FFFFFF",
"&	c #FCFAFA",
"*	c #FAF5F5",
"=	c #F8F0F0",
"-	c #F6EBEB",
";	c #F4E6E6",
">	c #F2E1E1",
",	c #F0DCDC",
"'	c #EED7D7",
")	c #EBD2D2",
"!	c #E9CDCD",
"~	c #E7C8C8",
"{	c #E5C3C3",
"]	c #E3BEBE",
"^	c #E1B9B9",
"/	c #DFB4B4",
"(	c #DDAFAF",
"_	c #DAAAAA",
":	c #D8A5A5",
"<	c #D6A0A0",
"[	c #D49B9B",
"}	c #D29696",
"|	c #D09191",
"1	c #CE8C8C",
"2	c #CC8787",
"3	c #C98282",
"4	c #C77D7D",
"5	c #C57878",
"6	c #C37373",
"7	c #C16E6E",
"8	c #BF6969",
"9	c #BD6464",
"0	c #BA5F5F",
"a	c #B85A5A",
"b	c #B65555",
"c	c #B45050",
"d	c #B24B4B",
"e	c #B04646",
"f	c #AE4141",
"g	c #AC3C3C",
"h	c #A93737",
"i	c #A73232",
"j	c #A52D2D",
"k	c #A32828",
"l	c #A12323",
"m	c #9F1E1E",
"n	c #9D1919",
"o	c #9B1414",
"p	c #980F0F",
"q	c #6CB237 s Back1",
"r	c #3E463E",
"s	c #010101",
"t	c #505055",
"u	c #4F8327",
"..++++++....@@@@@@....++++++....++++++....@@@@@@....++++++....++++++....++++++....++++++....++++++..++++.###################################################..........",
"+..++++..+@..@@@@..+@..++++..+@..++++..++..@@@@..++..++++..@+..++++..@@..++++..++..++++..++..++++..+..$$.#$$$$$$$$$$$$#$$$$$$$$$$$#$$$$$$$$$$$#$$$$$$$$$$$$#..........",
"++......++@@......++@@......++@@......++++......++++......@@++......@@@@......++++......++++......++++++.#$$#$$#$$#$$$#$$$$#$$#$$$#$$$#$$#$$$$#$$$#$$#$$#$$#..........",
"++......++@@......++@@......++@@......++++......++++......@@++......@@@@......++++......++++......++..$$.#$$#$##$##$$$#$$$##$##$$$#$$$##$##$$$#$$$##$##$#$$#..........",
"++......++@@......++@@......++@@......++++......++++......@@++......@@@@......++++......++++......++++++.#$$#######$$$#$$######$$$#$$$######$$#$$$#######$$#..........",
"++......++@@......++@@......++@@......++++......++++......@@++......@@@@......++++......++++......++..$$.#$$#$##$##$$$#$$$##$##$$$#$$$##$##$$$#$$$##$##$#$$#..........",
"++......++@@......++@@......++@@......++++......++++......@@++......@@@@......++++......++++......++++++.#$$#$$#$$#$$$#$$$$#$$#$$$#$$$#$$#$$$$#$$$#$$#$$#$$#..........",
"++......++@@......++@@......++@@......++++......++++......@@++......@@@@......++++......++++......++..$$.#$$$$$$$$$$$$#$$$$$$$$$$$#$$$$$$$$$$$#$$$$$$$$$$$$#..........",
"++......++@@......++@@......++@@......++++......++++......@@++......@@@@......++++......++++......++++++.#############@###########@###########@#############..........",
"+..@@@@..+@..@@@@..+@..++++..+@..++++..++..++++..++..++++..@+..++++..@@..@@@@..++..++++..++..++++..+..$$.#%&*=-;>,')!~{]^/(_:<[}|1234567890abcdefghijklmnop#..........",
"..@@@@@@....@@@@@@....++++++....++++++....++++++....++++++....++++++....@@@@@@....++++++....++++++..++++.#%&*=-;>,')!~{]^/(_:<[}|1234567890abcdefghijklmnop#..........",
"+........+@........++........@@........+@........+@........++........+@........++........+@........+..$$.#%&*=-;>,')!~{]^/(_:<[}|1234567890abcdefghijklmnop#..........",
"++......++@@......++++......@@@@......++@@......++@@......++++......++@@......++++......++@@......++++++.#%&*=-;>,')!~{]^/(_:<[}|1234567890abcdefghijklmnop#..........",
"++......++@@......++++......@@@@......++@@......++@@......++++......++@@......++++......++@@......++..$$.#########@####################@#########@##########..........",
"++......++@@......++++......@@@@......++@@......++@@......++++......++@@......++++......++@@......++++++.#$$$$$$$$#$$$$$$$$$$$$$$$$$$$$#$$$$$$$$$#$$$$$$$$$#..........",
"++......++@@......++++......@@@@......++@@......++@@......++++......++@@......++++......++@@......++..$$.#$$$$$$$$#$$$$$$$$$$$$$$$$$$$$#$$$$$$$$$#$$$$$$$$$#..........",
"++......++@@......++++......@@@@......++@@......++@@......++++......++@@......++++......++@@......++++++.#$$$##$$$#$$$$$$$$##$$$$$$$$$$#$$##$##$$#$$#####$$#..........",
"++......++@@......++++......@@@@......++@@......++@@......++++......++@@......++++......++@@......++..$$.#$$####$$#$$$$$$$$####$$$$$$$$#$$##$##$$#$$#####$$#..........",
"+..++++..+@..@@@@..++..++++..@@..++++..+@..@@@@..+@..++++..++..++++..+@..@@@@..++..++++..+@..++++..+++++.#$######$#$$$$$$$$######$$$$$$#$$##$##$$#$$#####$$#..........",
"..++++++....@@@@@@....++++++....++++++....@@@@@@....++++++....++++++....@@@@@@....++++++....++++++....$$.#$$$$$$$$#$$$$$$$$####$$$$$$$$#$$##$##$$#$$#####$$#..........",
"$$++++++$$$$qqqqqq$$$$++++++$$$$++++++$$$$qqqqqq$$$$++++++$$$$++++++$$$$++++++$$$$++++++$$$$++++++$$++++.#$######$#$$$$$$$$##$$$$$$$$$$#$$$$$$$$$#$$$$$$$$$#..........",
"+$$++++$$+q$$qqqq$$+q$$++++$$+q$$++++$$++$$qqqq$$++$$++++$$q+$$++++$$qq$$++++$$++$$++++$$++$$++++$$+.....#$$$$$$$$#$$$$$$$$$$$$$$$$$$$$#$$$$$$$$$#$$$$$$$$$#..........",
"++$$$$$$++qq$$$$$$++qq$$$$$$++qq$$$$$$++++$$$$$$++++$$$$$$qq++$$$$$$qqqq$$$$$$++++$$$$$$++++$$$$$$++.....###################################################..........",
"++$$$$$$++qq$$$$$$++qq$$$$$$++qq$$$$$$++++$$$$$$++++$$$$$$qq++$$$$$$qqqq$$$$$$++++$$$$$$++++$$$$$$++..................................................................",
"++$$$$$$++qq$$$$$$++qq$$$$$$++qq$$$$$$++++$$$$$$++++$$$$$$qq++$$$$$$qqqq$$$$$$++++$$$$$$++++$$$$$$++..................................................................",
"++$$$$$$++qq$$$$$$++qq$$$$$$++qq$$$$$$++++$$$$$$++++$$$$$$qq++$$$$$$qqqq$$$$$$++++$$$$$$++++$$$$$$++.....###################################################..........",
"++$$$$$$++qq$$$$$$++qq$$$$$$++qq$$$$$$++++$$$$$$++++$$$$$$qq++$$$$$$qqqq$$$$$$++++$$$$$$++++$$$$$$++.....#............#...........#...........#............#..........",
"++$$$$$$++qq$$$$$$++qq$$$$$$++qq$$$$$$++++$$$$$$++++$$$$$$qq++$$$$$$qqqq$$$$$$++++$$$$$$++++$$$$$$++.....#..#..#..#...#....#..#...#...#..#....#...#..#..#..#..........",
"++$$$$$$++qq$$$$$$++qq$$$$$$++qq$$$$$$++++$$$$$$++++$$$$$$qq++$$$$$$qqqq$$$$$$++++$$$$$$++++$$$$$$++.....#..#.##.##...#...##.##...#...##.##...#...##.##.#..#..........",
"+$$qqqq$$+q$$qqqq$$+q$$++++$$+q$$++++$$++$$++++$$++$$++++$$q+$$++++$$qq$$qqqq$$++$$++++$$++$$++++$$+.....#..#######...#..######...#...######..#...#######..#..........",
"$$qqqqqq$$$$qqqqqq$$$$++++++$$$$++++++$$$$++++++$$$$++++++$$$$++++++$$$$qqqqqq$$$$++++++$$$$++++++$$.....#..#.##.##...#...##.##...#...##.##...#...##.##.#..#..........",
"+$$$$$$$$+q$$$$$$$$++$$$$$$$$qq$$$$$$$$+q$$$$$$$$+q$$$$$$$$++$$$$$$$$+q$$$$$$$$++$$$$$$$$+q$$$$$$$$+.+++.#..#..#..#...#....#..#...#...#..#....#...#..#..#..#..........",
"++$$$$$$++qq$$$$$$++++$$$$$$qqqq$$$$$$++qq$$$$$$++qq$$$$$$++++$$$$$$++qq$$$$$$++++$$$$$$++qq$$$$$$+++....#............#...........#...........#............#..........",
"++$$$$$$++qq$$$$$$++++$$$$$$qqqq$$$$$$++qq$$$$$$++qq$$$$$$++++$$$$$$++qq$$$$$$++++$$$$$$++qq$$$$$$+++....#############@###########@###########@#############..........",
"++$$$$$$++qq$$$$$$++++$$$$$$qqqq$$$$$$++qq$$$$$$++qq$$$$$$++++$$$$$$++qq$$$$$$++++$$$$$$++qq$$$$$$+++....#%&*=-;>,')!~{]^/(_:<[}|1234567890abcdefghijklmnop#..........",
"++$$$$$$++qq$$$$$$++++$$$$$$qqqq$$$$$$++qq$$$$$$++qq$$$$$$++++$$$$$$++qq$$$$$$++++$$$$$$++qq$$$$$$++r@@@.#%&*=-;>,')!~{]^/(_:<[}|1234567890abcdefghijklmnop#..........",
"++$$$$$$++qq$$$$$$++++$$$$$$qqqq$$$$$$++qq$$$$$$++qq$$$$$$++++$$$$$$++qq$$$$$$++++$$$$$$++qq$$$$$$+++....#%&*=-;>,')!~{]^/(_:<[}|1234567890abcdefghijklmnop#..........",
"++$$$$$$++qq$$$$$$++++$$$$$$qqqq$$$$$$++qq$$$$$$++qq$$$$$$++++$$$$$$++qq$$$$$$++++$$$$$$++qq$$$$$$+++....#%&*=-;>,')!~{]^/(_:<[}|1234567890abcdefghijklmnop#..........",
"+$$++++$$+q$$qqqq$$++$$++++$$qq$$++++$$+q$$qqqq$$+q$$++++$$++$$++++$$+q$$qqqq$$++$$++++$$+q$$++++$$++....#########@####################@#########@##########..........",
"$$++++++$$$$qqqqqq$$$$++++++$$$$++++++$$$$qqqqqq$$$$++++++$$$$++++++$$$$qqqqqq$$$$++++++$$$$++++++$$.+++.#........#....................#.........#.........#..........",
".+++..@@@r.+++..+++.r@@@rr+++..+++..+++r.+++..+++.$+++$$qqqr$+++$$+++$rqqqrr+++$$+++$$+++r$+++$$+++$$+++.#........#....................#.........#.........#..........",
"+...+@...+@...+@...++...++...@+...@@...++...++...++$$$+q$$$+q$$$+q$$$++$$$++$$$q+$$$qq$$$++$$$++$$$++$$$.#...##...#........##..........#..##.##..#..#####..#..........",
"+...+@...+@...+@...++...++...@+...@@...++...++...++$$$+q$$$+q$$$+q$$$++$$$++$$$q+$$$qq$$$++$$$++$$$++$$$.#..####..#........####........#..##.##..#..#####..#..........",
"+...+@...+@...+@...++...++...@+...@@...++...++...++$$$+q$$$+q$$$+q$$$++$$$++$$$q+$$$qq$$$++$$$++$$$++$$$.#.######.#........######......#..##.##..#..#####..#..........",
"r@@@r.@@@r.+++..+++rr+++rr+++..+++..@@@r.+++..+++rrqqqr$qqqr$+++$$+++rr+++rr+++$$+++$$qqqr$+++$$+++rrqqq.#........#........####........#..##.##..#..#####..#..........",
"+...+@...++...@@...+@...+@...++...+@...++...+@...++$$$+q$$$++$$$qq$$$+q$$$+q$$$++$$$+q$$$++$$$+q$$$++$$$.#.######.#........##..........#.........#.........#..........",
"+...+@...++...@@...+@...+@...++...+@...++...+@...++$$$+q$$$++$$$qq$$$+q$$$+q$$$++$$$+q$$$++$$$+q$$$++$$$.#........#....................#.........#.........#..........",
"+...+@...++...@@...+@...+@...++...+@...++...+@...++$$$+q$$$++$$$qq$$$+q$$$+q$$$++$$$+q$$$++$$$+q$$$++$$$.###################################################..........",
".+++..@@@r.+++r.+++..@@@rr+++..+++..@@@r.+++..+++.$+++$$qqqr$+++r$+++$$qqqrr+++$$+++$$qqqr$+++$$+++$$+++..............................................................",
"###################################################........................                                                             ..............................",
"###################################################........................                                                             ..............................",
"###%##%##%########%##%#######%##%########%##%##%###........................                                                             ..............................",
"###%#%%#%%#######%%#%%#######%%#%%#######%%#%%#%###........................                                                             ..............................",
"###%%%%%%%######%%%%%%#######%%%%%%######%%%%%%%###........................                                                             ..............................",
"###%#%%#%%#######%%#%%#######%%#%%#######%%#%%#%###........................                                                             ..............................",
"###%##%##%########%##%#######%##%########%##%##%###........................                                                             ..............................",
"###################################################...##......oo......oo......oo....                                                    ..............................",
"#############@###########@###########@#############...##......oo......oo......oo....                     .............................................................",
"#%&*=-;>,')!~{]^/(_:<[}|1234567890abcdefghijklmnop#.................................                     .............................................................",
"#%&*=-;>,')!~{]^/(_:<[}|1234567890abcdefghijklmnop#.................................                     .............................................................",
"#%&*=-;>,')!~{]^/(_:<[}|1234567890abcdefghijklmnop#.oo..oo..oo..##..##..oo..oo..oo..                     .............................................................",
"#%&*=-;>,')!~{]^/(_:<[}|1234567890abcdefghijklmnop#.oo..oo..oo..##..##..oo..oo..oo..                                                    ..............................",
"#########@####################@#########@##########.................................                     %&*=-;>,')!~{]^/(_:<[}|1234567890abcdefghijklmnop............",
"###################################################.$$##$$$$$$oo$$$$$$oo$$$$$$oo$$$$                     %&*=-;>,')!~{]^/(_:<[}|1234567890abcdefghijklmnop............",
"###################################################.$$##$$$$$$oo$$$$$$oo$$$$$$oo$$$$                     %&*=-;>,')!~{]^/(_:<[}|1234567890abcdefghijklmnop............",
"####%%############%%#############%%#%%#####%%%%%###.$$$$$$$$$$$$$$$$$$$$$$$$$$$$$$$$                     %&*=-;>,')!~{]^/(_:<[}|1234567890abcdefghijklmnop............",
"###%%%%###########%%%%###########%%#%%#####%%%%%###.$$$$$$$$$$$$$$$$$$$$$$$$$$$$$$$$                                                    ..............................",
"##%%%%%%##########%%%%%%#########%%#%%#####%%%%%###.oo$$oo$$oo$$##$$##$$oo$$oo$$oo$$                     $$$$$$$$$$$$$$$$$$$$$$$$$$$$$$$$$$$$$$$$$$$$$$$$$............",
"##################%%%%###########%%#%%#####%%%%%###.oo$$oo$$oo$$##$$##$$oo$$oo$$oo$$                     $$$$$$$$$$$$$$$$$$$$$$$$$$$$$$$$$$$$$$$$$$$$$$$$$............",
"##%%%%%%##########%%###############################........................                              $$$$$$$$$$$$$$$$$$$$$$$$$$$$$$$$$$$$$$$$$$$$$$$$$............",
"###################################################........................                              $$$$$$$$$$$$$$$$$$$$$$$$$$$$$$$$$$$$$$$$$$$$$$$$$............",
"...........................................................................                                                             ..............................",
"@sss@.tsss..tssst.tsss..tssst.tssst.tssst.t@@@t..@@@t..@@@t.t@@@t.t@@@..s@@@s.tsss..tssst.tssst.tssst.tssst.tssst.tssst.t@@@t.t@@@t.t@@@t.t@@@t.t@@@t.tssst...........",
"s...s.s...s.s...@.s...s.s...@.s...@.s...@.s...s.@...s.@...s.s...s.s...@.ss.ss.s...s.s...s.s...s.s...s.s...s.s...@.@.s.@.s...s.s...s.s...s.s...s.s...s.@...s...........",
"s...s.s...s.s...@.s...s.s...@.s...@.s...@.s...s.@...s.@...s.s..s@.s...@.s.s.s.s...s.s...s.s...s.s...s.s...s.s...@.@.s.@.s...s.s...s.s...s.@s.s@.s...s.@..s@...........",
"tssst.tsss..t@@@..t@@@t.tsss..tsss..t@sst.tssst..@@@t..@@@t.tss@..t@@@..t@@@t.t@@@t.t@@@t.tssst.ts@@t.tsss..tssst..@t@..t@@@t.t@@@t.t@@@t..@s@..tssst..@s@............",
"s...s.s...s.s...@.s...s.s...@.s...@.s...s.s...s.@...s.@...s.s..s@.s...@.s...s.s...s.s...s.s...@.s.s.s.s...s.@...s.@.s.@.s...s.s...s.s.s.s.@s.s@.@...s.@s..@...........",
"s...s.s...s.s...@.s...s.s...@.s...@.s...s.s...s.@...s.@...s.s...s.s...@.s...s.s...s.s...s.s...@.s..ss.s...s.@...s.@.s.@.s...s.s...s.ss.ss.s...s.@...s.s...@...........",
"t@@@t.tsss..tssst.ssss..tssst.s@@@..tssst.t@@@t..@@@s.tssst.t@@@t.tsss@.t@@@t.s@@@s.tssst.t@@@..tssst.t@@@t.tssst..@t@..@ssss..sss..s@@@s.t@@@sttssst.tssst...........",
"......................................................................................................................................................................",
"......................................................................................................................................................................",
".sss...@@@t.tssst.tssst.t@@@t.tssst.tssst.tssst.tssst.tssst..@@@...@@@...@@@...s@@...s@@...@@s...@@@...@@s...###########..###########..###########..###########.......",
"s...s.@...s.@...s.@...s.s...s.s...@.s...@.@...s.s...s.s...s.@...@.@...@.@...@.s...@.s...@.@...s.s.t.s.@..s@..##ooo#ooo##..#oo##oo####..##%%%#%%%##..#%%##%%####.......",
"s...s.@...s.@...s.@...s.s...s.s...@.s...@.@...s.s...s.s...s.@...@.@...@.@...@.s...@.s...@.@...s.@ttt@.@.s.@..#o###o###o#..###########..#%###%###%#..###########.......",
"t@@@t..@@@t.tssst..ssst.tssst.tssst.tssst..@@@t.@sss@.tssst..@@@..tssst..@@@...@@@..t@@@...@@@t.sssss..@s@...#o###o###o#..###oo##oo##..#%###%###%#..###%%##%%##.......",
"s...s.@...s.s...@.@...s.@...s.@...s.s...s.@...s.s...s.@...s.@...@.@...@.@...@.@...@.s...@.@...s.@ttt@.@.s.@..##ooo#ooo##..###########..##%%%#%%%##..###########.......",
"s...s.@...s.s...@.@...s.@...s.@...s.s...s.@...s.s...s.@...s.@...@.@...@.@...@.@...@.s...@.@...s.s.t.s.@s..@..###########..###########..###########..###########.......",
".sss...@@@s.tssst.tssst..@@@t.tssst.tssst..@@@t.tssst.tssst..@@@...@@@...tst...@@@...s@@...@@s...@@@...s@@............................................................",
"......................................................................................................................................................................",
"qsssq$usss$$usssu$usss$$usssu$usssu$usssu$uqqqu$$qqqu$$qqqu$uqqqu$uqqq$$sqqqs$usss$$usssu$usssu$usssu$usssu$usssu$usssu$uqqqu$uqqqu$uqqqu$uqqqu$uqqqu$usssu$..........",
"s$$$s$s$$$s$s$$$q$s$$$s$s$$$q$s$$$q$s$$$q$s$$$s$q$$$s$q$$$s$s$$$s$s$$$q$ss$ss$s$$$s$s$$$s$s$$$s$s$$$s$s$$$s$s$$$q$q$s$q$s$$$s$s$$$s$s$$$s$s$$$s$s$$$s$q$$$s$..........",
"s$$$s$s$$$s$s$$$q$s$$$s$s$$$q$s$$$q$s$$$q$s$$$s$q$$$s$q$$$s$s$$sq$s$$$q$s$s$s$s$$$s$s$$$s$s$$$s$s$$$s$s$$$s$s$$$q$q$s$q$s$$$s$s$$$s$s$$$s$qs$sq$s$$$s$q$$sq$%%%%%%%%%%",
"usssu$usss$$uqqq$$uqqqu$usss$$usss$$uqssu$usssu$$qqqu$$qqqu$ussq$$uqqq$$uqqqu$uqqqu$uqqqu$usssu$usqqu$usss$$usssu$$quq$$uqqqu$uqqqu$uqqqu$$qsq$$usssu$$qsq$$%%%%%%%%%%",
"s$$$s$s$$$s$s$$$q$s$$$s$s$$$q$s$$$q$s$$$s$s$$$s$q$$$s$q$$$s$s$$sq$s$$$q$s$$$s$s$$$s$s$$$s$s$$$q$s$s$s$s$$$s$q$$$s$q$s$q$s$$$s$s$$$s$s$s$s$qs$sq$q$$$s$qs$$q$%%%%%%%%%%",
"s$$$s$s$$$s$s$$$q$s$$$s$s$$$q$s$$$q$s$$$s$s$$$s$q$$$s$q$$$s$s$$$s$s$$$q$s$$$s$s$$$s$s$$$s$s$$$q$s$$ss$s$$$s$q$$$s$q$s$q$s$$$s$s$$$s$ss$ss$s$$$s$q$$$s$s$$$q$%%%%%%%%%%",
"uqqqu$usss$$usssu$ssss$$usssu$sqqq$$usssu$uqqqu$$qqqs$usssu$uqqqu$usssq$uqqqu$sqqqs$usssu$uqqq$$usssu$uqqqu$usssu$$quq$$qssss$$sss$$sqqqs$uqqqsuusssu$usssu$%%%%%%%%%%",
"$$$$$$$$$$$$$$$$$$$$$$$$$$$$$$$$$$$$$$$$$$$$$$$$$$$$$$$$$$$$$$$$$$$$$$$$$$$$$$$$$$$$$$$$$$$$$$$$$$$$$$$$$$$$$$$$$$$$$$$$$$$$$$$$$$$$$$$$$$$$$$$$$$$$$$$$$$$$%%%%%%%%%%",
"$$$$$$$$$$$$$$$$$$$$$$$$$$$$$$$$$$$$$$$$$$$$$$$$$$$$$$$$$$$$$$$$$$$$$$$$$$$$$$$$$$$$$$$$$$$$$$$$$$$$$$$$$$$$$$$$$$$$$$$$$$$$$$$$$$$$$$$$$$$$$$$$$$$$$$$$$$$$%%%%%%%%%%",
"$sss$$$qqqu$usssu$usssu$uqqqu$usssu$usssu$usssu$usssu$usssu$$qqq$$$qqq$$$qqq$$$sqq$$$sqq$$$qqs$$$qqq$$$qqs$$$$$$$$$$$$$$$$$$$$$$$$$$$$$$$$$$$$$$$$$$$$$$$$$$%%%%%%%%%%",
"s$$$s$q$$$s$q$$$s$q$$$s$s$$$s$s$$$q$s$$$q$q$$$s$s$$$s$s$$$s$q$$$q$q$$$q$q$$$q$s$$$q$s$$$q$q$$$s$s$u$s$q$$sq$$$$$$$$$$$$$$$$$$$$$$$$$$$$$$$$$$$$$$$$$$$$$$$$$%%%%%%%%%%",
"s$$$s$q$$$s$q$$$s$q$$$s$s$$$s$s$$$q$s$$$q$q$$$s$s$$$s$s$$$s$q$$$q$q$$$q$q$$$q$s$$$q$s$$$q$q$$$s$quuuq$q$s$q$$$$$$$$$$$$$$$$$$$$$$$$$$$$$$$$$$$$$$$$$$$$$$$$$%%%%%%%%%%",
"uqqqu$$qqqu$usssu$$sssu$usssu$usssu$usssu$$qqqu$qsssq$usssu$$qqq$$usssu$$qqq$$$qqq$$uqqq$$$qqqu$sssss$$qsq$$$$$$$$$$$$$$$$$$$$$$$$$$$$$$$$$$$$$$$$$$$$$$$$$$%%%%%%%%%%",
"s$$$s$q$$$s$s$$$q$q$$$s$q$$$s$q$$$s$s$$$s$q$$$s$s$$$s$q$$$s$q$$$q$q$$$q$q$$$q$q$$$q$s$$$q$q$$$s$quuuq$q$s$q$$$$$$$$$$$$$$$$$$$$$$$$$$$$$$$$$$$$$$$$$$$$$$$$$%%%%%%%%%%",
"s$$$s$q$$$s$s$$$q$q$$$s$q$$$s$q$$$s$s$$$s$q$$$s$s$$$s$q$$$s$q$$$q$q$$$q$q$$$q$q$$$q$s$$$q$q$$$s$s$u$s$qs$$q$$$$$$$$$$$$$$$$$$$$$$$$$$$$$$$$$$$$$$$$$$$$$$$$$%%%%%%%%%%",
"$sss$$$qqqs$usssu$usssu$$qqqu$usssu$usssu$$qqqu$usssu$usssu$$qqq$$$qqq$$$usu$$$qqq$$$sqq$$$qqs$$$qqq$$$sqq$$$$$$$$$$$$$$$$$$$$$$$$$$$$$$$$$$$$$$$$$$$$$$$$$$%%%%%%%%%%"};
